<?xml version="1.0" standalone="no"?>
<!DOCTYPE svg PUBLIC "-//W3C//DTD SVG 20010904//EN"
 "http://www.w3.org/TR/2001/REC-SVG-20010904/DTD/svg10.dtd">
<svg version="1.0" xmlns="http://www.w3.org/2000/svg"
 width="575.000000pt" height="575.000000pt" viewBox="0 0 575.000000 575.000000"
 preserveAspectRatio="xMidYMid meet">
<metadata>
Created by potrace 1.11, written by Peter Selinger 2001-2013
</metadata>
<g transform="translate(0.000000,575.000000) scale(0.100000,-0.100000)"
fill="#000000" stroke="none">
<path d="M700 5740 l-695 -5 0 -1027 0 -1026 331 -339 c183 -186 392 -399 465
-474 74 -75 220 -224 324 -331 105 -107 336 -345 515 -528 179 -183 363 -372
410 -420 47 -48 222 -228 390 -400 168 -172 334 -343 370 -380 123 -127 649
-665 718 -735 l69 -70 1076 0 c593 0 1077 2 1077 4 0 2 -253 255 -562 562
-309 308 -560 560 -557 562 2 2 39 29 81 60 150 110 293 237 412 368 164 179
324 428 426 659 45 102 125 335 135 391 3 19 10 50 15 69 37 142 49 292 46
560 -4 259 -15 356 -62 545 -117 465 -356 881 -705 1226 -113 112 -307 271
-396 325 -18 10 -64 38 -103 62 -122 75 -416 212 -453 212 -5 0 -23 6 -40 14
-78 35 -363 95 -532 112 -83 9 -1776 11 -2755 4z m2700 -1449 c411 -71 752
-381 869 -793 32 -112 45 -293 28 -388 -4 -25 -9 -58 -12 -75 -7 -53 -62 -204
-100 -273 -68 -125 -133 -203 -245 -296 -118 -97 -228 -160 -359 -205 -61 -21
-64 -21 -83 -4 -10 9 -476 473 -1034 1029 -990 987 -1015 1013 -982 1016 18 2
440 3 938 2 688 0 923 -3 980 -13z"/>
<path d="M2 1433 l3 -708 29 -85 c108 -322 354 -545 680 -618 60 -13 173 -16
754 -17 l682 -1 -32 35 c-18 20 -36 38 -40 41 -4 3 -471 468 -1037 1033 -567
565 -1033 1027 -1036 1027 -3 0 -5 -318 -3 -707z"/>
</g>
</svg>
